<mxfile host="65bd71144e">
    <diagram id="-waw4SO-Tqjw_iPjqkur" name="Page-1">
        <mxGraphModel dx="749" dy="564" grid="1" gridSize="10" guides="1" tooltips="1" connect="1" arrows="1" fold="1" page="1" pageScale="1" pageWidth="827" pageHeight="1169" math="0" shadow="0">
            <root>
                <mxCell id="0"/>
                <mxCell id="1" parent="0"/>
                <mxCell id="3" value="" style="rounded=0;whiteSpace=wrap;html=1;" parent="1" vertex="1">
                    <mxGeometry x="90" y="170" width="270" height="290" as="geometry"/>
                </mxCell>
                <mxCell id="4" value="CarBuilder" style="rounded=0;whiteSpace=wrap;html=1;" parent="1" vertex="1">
                    <mxGeometry x="90" y="170" width="270" height="60" as="geometry"/>
                </mxCell>
                <mxCell id="5" value="+withNumberOfDoors()" style="text;html=1;strokeColor=none;fillColor=none;align=left;verticalAlign=middle;whiteSpace=wrap;rounded=0;" parent="1" vertex="1">
                    <mxGeometry x="94" y="240" width="90" height="30" as="geometry"/>
                </mxCell>
                <mxCell id="6" value="+withSunRoof()" style="text;html=1;strokeColor=none;fillColor=none;align=center;verticalAlign=middle;whiteSpace=wrap;rounded=0;" parent="1" vertex="1">
                    <mxGeometry x="94" y="270" width="90" height="30" as="geometry"/>
                </mxCell>
                <mxCell id="7" value="+withExteriorColour()" style="text;html=1;strokeColor=none;fillColor=none;align=left;verticalAlign=middle;whiteSpace=wrap;rounded=0;" parent="1" vertex="1">
                    <mxGeometry x="94" y="300" width="130" height="30" as="geometry"/>
                </mxCell>
                <mxCell id="8" value="+withEngineSize()" style="text;html=1;strokeColor=none;fillColor=none;align=left;verticalAlign=middle;whiteSpace=wrap;rounded=0;" parent="1" vertex="1">
                    <mxGeometry x="94" y="330" width="130" height="30" as="geometry"/>
                </mxCell>
                <mxCell id="9" value="+withEngineType()" style="text;html=1;strokeColor=none;fillColor=none;align=left;verticalAlign=middle;whiteSpace=wrap;rounded=0;" parent="1" vertex="1">
                    <mxGeometry x="94" y="360" width="130" height="30" as="geometry"/>
                </mxCell>
                <mxCell id="10" value="...." style="text;html=1;strokeColor=none;fillColor=none;align=left;verticalAlign=middle;whiteSpace=wrap;rounded=0;" parent="1" vertex="1">
                    <mxGeometry x="94" y="390" width="130" height="30" as="geometry"/>
                </mxCell>
                <mxCell id="11" value="+buildCar()" style="text;html=1;strokeColor=none;fillColor=none;align=left;verticalAlign=middle;whiteSpace=wrap;rounded=0;" parent="1" vertex="1">
                    <mxGeometry x="94" y="420" width="130" height="30" as="geometry"/>
                </mxCell>
                <mxCell id="20" value="" style="endArrow=classic;html=1;entryX=0.5;entryY=1;entryDx=0;entryDy=0;exitX=0.5;exitY=0;exitDx=0;exitDy=0;" edge="1" parent="1" source="12" target="3">
                    <mxGeometry width="50" height="50" relative="1" as="geometry">
                        <mxPoint x="250" y="610" as="sourcePoint"/>
                        <mxPoint x="300" y="560" as="targetPoint"/>
                    </mxGeometry>
                </mxCell>
                <mxCell id="21" value="" style="group" vertex="1" connectable="0" parent="1">
                    <mxGeometry x="90" y="585" width="270" height="230" as="geometry"/>
                </mxCell>
                <mxCell id="12" value="Car" style="rounded=0;whiteSpace=wrap;html=1;" vertex="1" parent="21">
                    <mxGeometry width="270" height="60" as="geometry"/>
                </mxCell>
                <mxCell id="13" value="" style="rounded=0;whiteSpace=wrap;html=1;" vertex="1" parent="21">
                    <mxGeometry y="60" width="270" height="170" as="geometry"/>
                </mxCell>
                <mxCell id="14" value="+doors: number" style="text;html=1;strokeColor=none;fillColor=none;align=left;verticalAlign=middle;whiteSpace=wrap;rounded=0;" vertex="1" parent="21">
                    <mxGeometry x="14" y="70" width="90" height="30" as="geometry"/>
                </mxCell>
                <mxCell id="15" value="+hasSunroof: boolean" style="text;html=1;strokeColor=none;fillColor=none;align=center;verticalAlign=middle;whiteSpace=wrap;rounded=0;" vertex="1" parent="21">
                    <mxGeometry x="4" y="100" width="140" height="30" as="geometry"/>
                </mxCell>
                <mxCell id="17" value="+exteriorColour: string" style="text;html=1;strokeColor=none;fillColor=none;align=center;verticalAlign=middle;whiteSpace=wrap;rounded=0;" vertex="1" parent="21">
                    <mxGeometry x="4" y="130" width="140" height="30" as="geometry"/>
                </mxCell>
                <mxCell id="18" value="+engineSize: string" style="text;html=1;strokeColor=none;fillColor=none;align=left;verticalAlign=middle;whiteSpace=wrap;rounded=0;" vertex="1" parent="21">
                    <mxGeometry x="10" y="160" width="140" height="30" as="geometry"/>
                </mxCell>
                <mxCell id="19" value="+engineType: string" style="text;html=1;strokeColor=none;fillColor=none;align=left;verticalAlign=middle;whiteSpace=wrap;rounded=0;" vertex="1" parent="21">
                    <mxGeometry x="14" y="190" width="140" height="30" as="geometry"/>
                </mxCell>
            </root>
        </mxGraphModel>
    </diagram>
</mxfile>